<mxfile host="app.diagrams.net" modified="2024-03-30T13:40:39.185Z" agent="Mozilla/5.0 (X11; Ubuntu; Linux x86_64; rv:123.0) Gecko/20100101 Firefox/123.0" etag="FnXMw9ZTDaYiRyPD_cqB" version="24.2.1" type="device">
  <diagram name="Page-1" id="Brk5arsTvS6AG7diQlta">
    <mxGraphModel dx="1049" dy="612" grid="1" gridSize="10" guides="1" tooltips="1" connect="1" arrows="1" fold="1" page="1" pageScale="1" pageWidth="850" pageHeight="1100" math="0" shadow="0">
      <root>
        <mxCell id="0" />
        <mxCell id="1" parent="0" />
        <mxCell id="-X-PnORFt2Ks80rSETXd-1" value="User Interface" style="shape=module;align=left;spacingLeft=20;align=center;verticalAlign=top;whiteSpace=wrap;html=1;" vertex="1" parent="1">
          <mxGeometry x="330" y="158" width="170" height="52" as="geometry" />
        </mxCell>
        <mxCell id="-X-PnORFt2Ks80rSETXd-2" value="cv2 and other face recognition python libraries" style="shape=module;align=left;spacingLeft=20;align=center;verticalAlign=top;whiteSpace=wrap;html=1;" vertex="1" parent="1">
          <mxGeometry x="220" y="318" width="150" height="82" as="geometry" />
        </mxCell>
        <mxCell id="-X-PnORFt2Ks80rSETXd-39" style="edgeStyle=orthogonalEdgeStyle;rounded=0;orthogonalLoop=1;jettySize=auto;html=1;exitX=0;exitY=1;exitDx=10;exitDy=0;exitPerimeter=0;" edge="1" parent="1" source="-X-PnORFt2Ks80rSETXd-3" target="-X-PnORFt2Ks80rSETXd-38">
          <mxGeometry relative="1" as="geometry" />
        </mxCell>
        <mxCell id="-X-PnORFt2Ks80rSETXd-3" value="Image Storage" style="shape=module;align=left;spacingLeft=20;align=center;verticalAlign=top;whiteSpace=wrap;html=1;" vertex="1" parent="1">
          <mxGeometry x="60" y="318" width="120" height="50" as="geometry" />
        </mxCell>
        <mxCell id="-X-PnORFt2Ks80rSETXd-57" style="edgeStyle=orthogonalEdgeStyle;rounded=0;orthogonalLoop=1;jettySize=auto;html=1;exitX=1;exitY=0.5;exitDx=0;exitDy=0;dashed=1;" edge="1" parent="1" source="-X-PnORFt2Ks80rSETXd-4">
          <mxGeometry relative="1" as="geometry">
            <mxPoint x="320" y="400.0000000000001" as="targetPoint" />
          </mxGeometry>
        </mxCell>
        <mxCell id="-X-PnORFt2Ks80rSETXd-4" value="Folder Creation for each individual" style="shape=module;align=left;spacingLeft=20;align=center;verticalAlign=top;whiteSpace=wrap;html=1;" vertex="1" parent="1">
          <mxGeometry x="130" y="458" width="130" height="60" as="geometry" />
        </mxCell>
        <mxCell id="-X-PnORFt2Ks80rSETXd-62" style="edgeStyle=orthogonalEdgeStyle;rounded=0;orthogonalLoop=1;jettySize=auto;html=1;exitX=0.5;exitY=1;exitDx=0;exitDy=0;dashed=1;" edge="1" parent="1" source="-X-PnORFt2Ks80rSETXd-5" target="-X-PnORFt2Ks80rSETXd-7">
          <mxGeometry relative="1" as="geometry" />
        </mxCell>
        <mxCell id="-X-PnORFt2Ks80rSETXd-5" value="Manual Labelling Tool" style="shape=module;align=left;spacingLeft=20;align=center;verticalAlign=top;whiteSpace=wrap;html=1;" vertex="1" parent="1">
          <mxGeometry x="490" y="323" width="130" height="57" as="geometry" />
        </mxCell>
        <mxCell id="-X-PnORFt2Ks80rSETXd-66" style="edgeStyle=orthogonalEdgeStyle;rounded=0;orthogonalLoop=1;jettySize=auto;html=1;exitX=0.5;exitY=1;exitDx=0;exitDy=0;entryX=1;entryY=0.75;entryDx=0;entryDy=0;dashed=1;" edge="1" parent="1" source="-X-PnORFt2Ks80rSETXd-6" target="-X-PnORFt2Ks80rSETXd-7">
          <mxGeometry relative="1" as="geometry" />
        </mxCell>
        <mxCell id="-X-PnORFt2Ks80rSETXd-6" value="Collage" style="shape=module;align=left;spacingLeft=20;align=center;verticalAlign=top;whiteSpace=wrap;html=1;" vertex="1" parent="1">
          <mxGeometry x="655" y="333" width="130" height="47" as="geometry" />
        </mxCell>
        <mxCell id="-X-PnORFt2Ks80rSETXd-7" value="Image" style="shape=module;align=left;spacingLeft=20;align=center;verticalAlign=top;whiteSpace=wrap;html=1;" vertex="1" parent="1">
          <mxGeometry x="495" y="471" width="120" height="47" as="geometry" />
        </mxCell>
        <mxCell id="-X-PnORFt2Ks80rSETXd-23" value="" style="shape=providedRequiredInterface;html=1;verticalLabelPosition=bottom;sketch=0;rotation=0;" vertex="1" parent="1">
          <mxGeometry x="510" y="258" width="20" height="20" as="geometry" />
        </mxCell>
        <mxCell id="-X-PnORFt2Ks80rSETXd-24" style="edgeStyle=orthogonalEdgeStyle;rounded=0;orthogonalLoop=1;jettySize=auto;html=1;exitX=0.75;exitY=1;exitDx=0;exitDy=0;entryX=0;entryY=0.5;entryDx=0;entryDy=0;entryPerimeter=0;" edge="1" parent="1" source="-X-PnORFt2Ks80rSETXd-1" target="-X-PnORFt2Ks80rSETXd-23">
          <mxGeometry relative="1" as="geometry" />
        </mxCell>
        <mxCell id="-X-PnORFt2Ks80rSETXd-25" style="edgeStyle=orthogonalEdgeStyle;rounded=0;orthogonalLoop=1;jettySize=auto;html=1;exitX=1;exitY=0.5;exitDx=0;exitDy=0;exitPerimeter=0;entryX=0.641;entryY=0.029;entryDx=0;entryDy=0;entryPerimeter=0;" edge="1" parent="1" source="-X-PnORFt2Ks80rSETXd-23" target="-X-PnORFt2Ks80rSETXd-5">
          <mxGeometry relative="1" as="geometry" />
        </mxCell>
        <mxCell id="-X-PnORFt2Ks80rSETXd-29" style="edgeStyle=orthogonalEdgeStyle;rounded=0;orthogonalLoop=1;jettySize=auto;html=1;exitX=1;exitY=0.5;exitDx=0;exitDy=0;exitPerimeter=0;entryX=0.5;entryY=0;entryDx=0;entryDy=0;" edge="1" parent="1" source="-X-PnORFt2Ks80rSETXd-26" target="-X-PnORFt2Ks80rSETXd-6">
          <mxGeometry relative="1" as="geometry" />
        </mxCell>
        <mxCell id="-X-PnORFt2Ks80rSETXd-26" value="" style="shape=providedRequiredInterface;html=1;verticalLabelPosition=bottom;sketch=0;rotation=90;" vertex="1" parent="1">
          <mxGeometry x="710" y="238" width="20" height="20" as="geometry" />
        </mxCell>
        <mxCell id="-X-PnORFt2Ks80rSETXd-30" value="User authentication" style="shape=module;align=left;spacingLeft=20;align=center;verticalAlign=top;whiteSpace=wrap;html=1;" vertex="1" parent="1">
          <mxGeometry x="345" y="20" width="155" height="50" as="geometry" />
        </mxCell>
        <mxCell id="-X-PnORFt2Ks80rSETXd-31" value="" style="shape=providedRequiredInterface;html=1;verticalLabelPosition=bottom;sketch=0;rotation=-90;" vertex="1" parent="1">
          <mxGeometry x="412.5" y="110" width="20" height="20" as="geometry" />
        </mxCell>
        <mxCell id="-X-PnORFt2Ks80rSETXd-32" style="edgeStyle=orthogonalEdgeStyle;rounded=0;orthogonalLoop=1;jettySize=auto;html=1;exitX=0.5;exitY=1;exitDx=0;exitDy=0;entryX=1;entryY=0.5;entryDx=0;entryDy=0;entryPerimeter=0;" edge="1" parent="1" source="-X-PnORFt2Ks80rSETXd-30" target="-X-PnORFt2Ks80rSETXd-31">
          <mxGeometry relative="1" as="geometry" />
        </mxCell>
        <mxCell id="-X-PnORFt2Ks80rSETXd-33" style="edgeStyle=orthogonalEdgeStyle;rounded=0;orthogonalLoop=1;jettySize=auto;html=1;exitX=0;exitY=0.5;exitDx=0;exitDy=0;exitPerimeter=0;entryX=0.544;entryY=-0.015;entryDx=0;entryDy=0;entryPerimeter=0;" edge="1" parent="1" source="-X-PnORFt2Ks80rSETXd-31" target="-X-PnORFt2Ks80rSETXd-1">
          <mxGeometry relative="1" as="geometry" />
        </mxCell>
        <mxCell id="-X-PnORFt2Ks80rSETXd-34" value="Database server" style="shape=module;align=left;spacingLeft=20;align=center;verticalAlign=top;whiteSpace=wrap;html=1;" vertex="1" parent="1">
          <mxGeometry x="140" y="90" width="150" height="50" as="geometry" />
        </mxCell>
        <mxCell id="-X-PnORFt2Ks80rSETXd-36" style="edgeStyle=orthogonalEdgeStyle;rounded=0;orthogonalLoop=1;jettySize=auto;html=1;exitX=0.25;exitY=0;exitDx=0;exitDy=0;entryX=0.995;entryY=0.36;entryDx=0;entryDy=0;entryPerimeter=0;dashed=1;" edge="1" parent="1" source="-X-PnORFt2Ks80rSETXd-1" target="-X-PnORFt2Ks80rSETXd-34">
          <mxGeometry relative="1" as="geometry" />
        </mxCell>
        <mxCell id="-X-PnORFt2Ks80rSETXd-38" value="" style="shape=providedRequiredInterface;html=1;verticalLabelPosition=bottom;sketch=0;" vertex="1" parent="1">
          <mxGeometry x="60" y="493" width="20" height="20" as="geometry" />
        </mxCell>
        <mxCell id="-X-PnORFt2Ks80rSETXd-40" style="edgeStyle=orthogonalEdgeStyle;rounded=0;orthogonalLoop=1;jettySize=auto;html=1;exitX=1;exitY=0.5;exitDx=0;exitDy=0;exitPerimeter=0;entryX=0;entryY=0.75;entryDx=10;entryDy=0;entryPerimeter=0;" edge="1" parent="1" source="-X-PnORFt2Ks80rSETXd-38" target="-X-PnORFt2Ks80rSETXd-4">
          <mxGeometry relative="1" as="geometry" />
        </mxCell>
        <mxCell id="-X-PnORFt2Ks80rSETXd-41" value="&amp;lt;&amp;lt;component&amp;gt;&amp;gt;" style="text;html=1;align=center;verticalAlign=middle;whiteSpace=wrap;rounded=0;" vertex="1" parent="1">
          <mxGeometry x="370" y="50" width="120" height="10" as="geometry" />
        </mxCell>
        <mxCell id="-X-PnORFt2Ks80rSETXd-43" value="&amp;lt;&amp;lt;component&amp;gt;&amp;gt;" style="text;html=1;align=center;verticalAlign=middle;whiteSpace=wrap;rounded=0;" vertex="1" parent="1">
          <mxGeometry x="155" y="120" width="120" height="10" as="geometry" />
        </mxCell>
        <mxCell id="-X-PnORFt2Ks80rSETXd-44" value="&amp;lt;&amp;lt;component&amp;gt;&amp;gt;" style="text;html=1;align=center;verticalAlign=middle;whiteSpace=wrap;rounded=0;" vertex="1" parent="1">
          <mxGeometry x="362.5" y="188" width="120" height="10" as="geometry" />
        </mxCell>
        <mxCell id="-X-PnORFt2Ks80rSETXd-45" value="&amp;lt;&amp;lt;component&amp;gt;&amp;gt;" style="text;html=1;align=center;verticalAlign=middle;whiteSpace=wrap;rounded=0;" vertex="1" parent="1">
          <mxGeometry x="70" y="343" width="120" height="10" as="geometry" />
        </mxCell>
        <mxCell id="-X-PnORFt2Ks80rSETXd-46" value="&amp;lt;&amp;lt;component&amp;gt;&amp;gt;" style="text;html=1;align=center;verticalAlign=middle;whiteSpace=wrap;rounded=0;" vertex="1" parent="1">
          <mxGeometry x="140" y="498" width="120" height="10" as="geometry" />
        </mxCell>
        <mxCell id="-X-PnORFt2Ks80rSETXd-47" value="&amp;lt;&amp;lt;component&amp;gt;&amp;gt;" style="text;html=1;align=center;verticalAlign=middle;whiteSpace=wrap;rounded=0;" vertex="1" parent="1">
          <mxGeometry x="242.5" y="373" width="120" height="10" as="geometry" />
        </mxCell>
        <mxCell id="-X-PnORFt2Ks80rSETXd-53" value="&amp;lt;&amp;lt;component&amp;gt;&amp;gt;" style="text;html=1;align=center;verticalAlign=middle;whiteSpace=wrap;rounded=0;" vertex="1" parent="1">
          <mxGeometry x="500" y="363" width="120" height="10" as="geometry" />
        </mxCell>
        <mxCell id="-X-PnORFt2Ks80rSETXd-54" value="&amp;lt;&amp;lt;component&amp;gt;&amp;gt;" style="text;html=1;align=center;verticalAlign=middle;whiteSpace=wrap;rounded=0;" vertex="1" parent="1">
          <mxGeometry x="670" y="363" width="120" height="10" as="geometry" />
        </mxCell>
        <mxCell id="-X-PnORFt2Ks80rSETXd-55" value="&amp;lt;&amp;lt;component&amp;gt;&amp;gt;" style="text;html=1;align=center;verticalAlign=middle;whiteSpace=wrap;rounded=0;" vertex="1" parent="1">
          <mxGeometry x="500" y="498" width="120" height="10" as="geometry" />
        </mxCell>
        <mxCell id="-X-PnORFt2Ks80rSETXd-59" style="edgeStyle=orthogonalEdgeStyle;rounded=0;orthogonalLoop=1;jettySize=auto;html=1;exitX=0.5;exitY=1;exitDx=0;exitDy=0;entryX=0;entryY=0.5;entryDx=0;entryDy=0;entryPerimeter=0;" edge="1" parent="1" source="-X-PnORFt2Ks80rSETXd-34" target="-X-PnORFt2Ks80rSETXd-16">
          <mxGeometry relative="1" as="geometry" />
        </mxCell>
        <mxCell id="-X-PnORFt2Ks80rSETXd-61" style="edgeStyle=orthogonalEdgeStyle;rounded=0;orthogonalLoop=1;jettySize=auto;html=1;exitX=1;exitY=0.5;exitDx=0;exitDy=0;exitPerimeter=0;" edge="1" parent="1" source="-X-PnORFt2Ks80rSETXd-16" target="-X-PnORFt2Ks80rSETXd-3">
          <mxGeometry relative="1" as="geometry" />
        </mxCell>
        <mxCell id="-X-PnORFt2Ks80rSETXd-16" value="" style="shape=providedRequiredInterface;html=1;verticalLabelPosition=bottom;sketch=0;rotation=-180;" vertex="1" parent="1">
          <mxGeometry x="150" y="190" width="20" height="20" as="geometry" />
        </mxCell>
        <mxCell id="-X-PnORFt2Ks80rSETXd-64" style="edgeStyle=orthogonalEdgeStyle;rounded=0;orthogonalLoop=1;jettySize=auto;html=1;exitX=1;exitY=0.5;exitDx=0;exitDy=0;entryX=0;entryY=0.5;entryDx=0;entryDy=0;entryPerimeter=0;" edge="1" parent="1" source="-X-PnORFt2Ks80rSETXd-1" target="-X-PnORFt2Ks80rSETXd-26">
          <mxGeometry relative="1" as="geometry" />
        </mxCell>
      </root>
    </mxGraphModel>
  </diagram>
</mxfile>
